<mxfile host="app.diagrams.net" modified="2023-05-10T01:23:27.101Z" agent="Mozilla/5.0 (Windows NT 10.0; Win64; x64) AppleWebKit/537.36 (KHTML, like Gecko) Chrome/112.0.0.0 Safari/537.36" version="21.2.3" etag="zUHcPRAcM71jgGnsmZQl" type="github">
  <diagram name="페이지-1" id="tg_u4Y_7FqLar1gnm6jB">
    <mxGraphModel>
      <root>
        <mxCell id="0" />
        <mxCell id="1" parent="0" />
      </root>
    </mxGraphModel>
  </diagram>
</mxfile>
